<?xml version="1.0" encoding="UTF-8"?>
<!DOCTYPE svg PUBLIC "-//W3C//DTD SVG 1.1//EN" "http://www.w3.org/Graphics/SVG/1.1/DTD/svg11.dtd">
<!-- Creator: CorelDRAW 2020 (64-Bit) -->
<svg xmlns="http://www.w3.org/2000/svg" xml:space="preserve" width="320mm" height="280mm" version="1.1" style="shape-rendering:geometricPrecision; text-rendering:geometricPrecision; image-rendering:optimizeQuality; fill-rule:evenodd; clip-rule:evenodd"
viewBox="0 0 320 280"
 xmlns:xlink="http://www.w3.org/1999/xlink"
 xmlns:xodm="http://www.corel.com/coreldraw/odm/2003">
 <defs>
	  <style type="text/css">
	   <![CDATA[
		.str1 {stroke:black;stroke-width:0;stroke-miterlimit:22.9256}
		.str0 {stroke:black;stroke-width:0;stroke-miterlimit:22.9256}
		.fil1 {fill:white}
		.fil0 {fill:black}
	   ]]>
	  </style>
 </defs>
	   <g id="RectBlack">
		 <g id="Layer_x0020_1_0">
		  <metadata id="CorelCorpID_1Corel-Layer"/>
          <rect class="fil0 str0" x="
97.0
" y="
90.0
" width="
6.0
 " height="
10.0
      "/>
          <g id="Rect_inclined_red_x0020__x2014__x0020_03.svg">
               <g id="RectWhite">
            <rect class="fil1" transform="matrix
            (0.707106 -0.707106 0.707106 0.707106

100.28654789
98.0

)
" width="
1.0

)
" height="
2.3

"/>
<circle class="fil1" cx="
100.64010123999999

" cy="
97.64644665

" r="
0.5

"/>
<circle class="fil1" cx="
102.26644664999999

" cy="
99.27279206

" r="
0.5

"/>
            <rect class="fil1" transform="matrix
            (0.707106 -0.707106 0.707106 0.707106

100.28654789
95.0

)
" width="
1.0

)
" height="
2.3

"/>
<circle class="fil1" cx="
100.64010123999999

" cy="
94.64644665

" r="
0.5

"/>
<circle class="fil1" cx="
102.26644664999999

" cy="
96.27279206

" r="
0.5

"/>
            <rect class="fil1" transform="matrix
            (0.707106 -0.707106 0.707106 0.707106

100.28654789
92.0

)
" width="
1.0

)
" height="
2.3

"/>
<circle class="fil1" cx="
100.64010123999999

" cy="
91.64644665

" r="
0.5

"/>
<circle class="fil1" cx="
102.26644664999999

" cy="
93.27279206

" r="
0.5

"/>
            <rect class="fil1" transform="matrix
            (0.707106 -0.707106 0.707106 0.707106

100.28654789
89.0

)
" width="
1.0

)
" height="
2.3

"/>
<circle class="fil1" cx="
100.64010123999999

" cy="
88.64644665

" r="
0.5

"/>
<circle class="fil1" cx="
102.26644664999999

" cy="
90.27279206

" r="
0.5

"/>
            <rect class="fil1" transform="matrix
            (0.707106 -0.707106 0.707106 0.707106

100.28654789
86.0

)
" width="
1.0

)
" height="
2.3

"/>
<circle class="fil1" cx="
100.64010123999999

" cy="
85.64644665

" r="
0.5

"/>
<circle class="fil1" cx="
102.26644664999999

" cy="
87.27279206

" r="
0.5

"/>
            <rect class="fil1" transform="matrix
            (0.707106 -0.707106 0.707106 0.707106

97.38
86.0

)
" width="
1.0

)
" height="
2.3

"/>
<circle class="fil1" cx="
97.73355335

" cy="
85.64644665

" r="
0.5

"/>
<circle class="fil1" cx="
99.35989876

" cy="
87.27279206

" r="
0.5

"/>
            <rect class="fil1" transform="matrix
            (0.707106 -0.707106 0.707106 0.707106

97.38
89.0

)
" width="
1.0

)
" height="
2.3

"/>
<circle class="fil1" cx="
97.73355335

" cy="
88.64644665

" r="
0.5

"/>
<circle class="fil1" cx="
99.35989876

" cy="
90.27279206

" r="
0.5

"/>
            <rect class="fil1" transform="matrix
            (0.707106 -0.707106 0.707106 0.707106

97.38
92.0

)
" width="
1.0

)
" height="
2.3

"/>
<circle class="fil1" cx="
97.73355335

" cy="
91.64644665

" r="
0.5

"/>
<circle class="fil1" cx="
99.35989876

" cy="
93.27279206

" r="
0.5

"/>
            <rect class="fil1" transform="matrix
            (0.707106 -0.707106 0.707106 0.707106

97.38
95.0

)
" width="
1.0

)
" height="
2.3

"/>
<circle class="fil1" cx="
97.73355335

" cy="
94.64644665

" r="
0.5

"/>
<circle class="fil1" cx="
99.35989876

" cy="
96.27279206

" r="
0.5

"/>
            <rect class="fil1" transform="matrix
            (0.707106 -0.707106 0.707106 0.707106

97.38
98.0

)
" width="
1.0

)
" height="
2.3

"/>
<circle class="fil1" cx="
97.73355335

" cy="
97.64644665

" r="
0.5

"/>
<circle class="fil1" cx="
99.35989876

" cy="
99.27279206

" r="
0.5

"/>
				   </g>
			  </g>	  
		 </g>
	  </g>
</svg>

